<?xml version="1.0" encoding="utf-8"?>
<!-- Generator: Adobe Illustrator 24.2.3, SVG Export Plug-In . SVG Version: 6.00 Build 0)  -->
<svg version="1.1" id="Layer_1" xmlns="http://www.w3.org/2000/svg" xmlns:xlink="http://www.w3.org/1999/xlink" x="0px" y="0px"
	 viewBox="0 0 480 120" style="enable-background:new 0 0 480 120;" xml:space="preserve">
<g>
	<path style="fill:#73166D;" d="M111.6,104.2V90.6c5.6,1,10.5,1.5,14.6,1.5c6.3,0,9.4-2.8,9.4-8.5V26.9h18.6v56.2
		c0,8.1-2.2,13.8-6.5,17.2c-4.4,3.4-11,5.1-20,5.1C122.3,105.4,116.9,105,111.6,104.2z"/>
	<path style="fill:#73166D;" d="M164.7,26.9h58.9v13.2h-40.4v17.7h36.4v13.2h-36.4V91h41.5v13.2h-60.1V26.9z"/>
	<path style="fill:#73166D;" d="M231.3,26.9h26.4l19,55.2l18.8-55.2h24.9v77.3h-16.8V47h-0.4l-19.5,57.1H269L248.8,47h-0.5v57.1h-17
		V26.9z"/>
	<path style="fill:#73166D;" d="M352.5,64.8l-27.3-37.9h21.4l16.5,25.7l16.4-25.7h21.4l-27.3,37.9l28.6,39.4h-21.5l-17.6-27.4
		l-17.7,27.4h-21.4L352.5,64.8z"/>
</g>
<g>
	<g>
		<path style="fill:#D94E67;" d="M65.8,90.5l29.8-47.2c0.5-0.7,1.6-0.8,2,0l9.4,16.9c0.5,1,0.5,2.1-0.1,3.1L81.7,103
			c-0.6,0.9-1.7,1.6-2.8,1.5l-12.3,0.1l0,0l-15.2,0.1l0,0l-11.2,0c-9.3,0-15-9.4-10.6-17.4c0.1-0.2,0.2-0.3,0.3-0.5l32.3-51.2
			c0,0,0-0.1,0.1-0.1c3.8-6.1-0.5-13.5-7.6-13.5l-5.4,0c1.7,3.6,1.5,7.8-0.7,11.3L18.6,80.5c-0.5,0.7-1.6,0.8-2,0L7.2,63.7
			c-0.5-1-0.5-2.1,0.1-3.1l25.1-39.8c0.6-0.9,1.7-1.6,2.8-1.5l5.4,0l27.7-0.2l5.9,0c9.3,0,15,9.5,10.3,17.5
			c-0.1,0.1-0.2,0.3-0.3,0.5L52,88.2c0,0,0,0.1-0.1,0.1c-3.7,6,0.5,13.5,7.6,13.4l5.5,0C63.3,98.2,63.5,93.9,65.8,90.5z"/>
	</g>
	<g style="opacity:0.7;">
		<g>
			<path style="fill:#F27B35;" d="M69.2,89.2L93,38.7c0.4-0.8,1.5-1,2-0.3L106.3,54c0.6,0.9,0.7,2,0.3,3.1L86.5,99.7
				c-0.5,1-1.5,1.7-2.6,1.9l-12.2,1.6l0,0L56.6,105l0,0l-11.2,1.4c-9.2,1.2-16.1-7.5-12.6-16c0.1-0.2,0.1-0.4,0.2-0.5l25.8-54.8
				c0,0,0-0.1,0-0.1c3-6.5-2.1-13.3-9.2-12.4l-5.4,0.7c2.2,3.3,2.4,7.5,0.6,11.3L21.1,85.1c-0.4,0.8-1.5,1-2,0.3L7.8,69.8
				c-0.6-0.9-0.7-2-0.3-3.1l20-42.6c0.5-1,1.5-1.7,2.6-1.9l5.4-0.7L63,18l5.9-0.7c9.2-1.2,16,7.6,12.3,16.1
				c-0.1,0.1-0.1,0.4-0.2,0.5L55.3,88.6c0,0,0,0.1,0,0.1c-3,6.5,2.1,13.3,9.2,12.4l5.4-0.7C67.7,97.2,67.4,92.9,69.2,89.2z"/>
		</g>
	</g>
	<g style="opacity:0.7;">
		<g>
			<path style="fill:#F2C849;" d="M72.4,87.5l17.4-53c0.3-0.8,1.4-1.1,2-0.5L105,48.1c0.7,0.8,1,1.9,0.6,3L90.9,95.8
				c-0.3,1.1-1.3,1.9-2.3,2.2l-11.9,3l0,0l-14.7,3.7l0,0L51,107.5c-9,2.3-16.9-5.5-14.5-14.4c0.1-0.2,0.1-0.4,0.2-0.6l18.9-57.5
				c0,0,0-0.1,0-0.1c2.2-6.8-3.7-13-10.6-11.2l-5.3,1.3c2.5,3,3.3,7.2,2,11.1l-17.5,53c-0.3,0.8-1.4,1.1-2,0.5L9.1,75.7
				c-0.7-0.8-1-1.9-0.6-3L23.2,28c0.3-1.1,1.3-1.9,2.3-2.2l5.3-1.3l26.9-6.9l5.8-1.5c9-2.3,16.8,5.6,14.2,14.5
				c-0.1,0.1-0.1,0.4-0.2,0.5L58.5,88.7c0,0,0,0.1,0,0.1c-2.2,6.8,3.8,12.9,10.6,11.2l5.3-1.3C71.9,95.6,71.1,91.4,72.4,87.5z"/>
		</g>
	</g>
</g>
<g>
	<path style="fill:#D94E67;" d="M416,26.6h11.2l7.6,24.1l7.3-24.1h10.6l-12.8,34.8h-10.7L416,26.6z"/>
	<path style="fill:#F27B35;" d="M454.7,37.3v-4.9l1.3,0.3c0.5,0.1,0.8,0.2,0.9,0.2l1.4,0.3c0.3,0.1,1,0.1,2.1,0.3
		c0.8,0.1,1.7,0.1,2.6,0.1c1.6,0,2.8-0.2,3.4-0.6c0.6-0.4,0.9-1.1,0.9-2.2v-3.1c0-1.3-1.4-2-4.2-2h-5v-4.2h5c2.2,0,3.3-0.8,3.3-2.4
		v-2.6c0-0.6-0.1-1-0.3-1.4c-0.2-0.3-0.6-0.6-1.2-0.7c-0.6-0.1-1.4-0.2-2.5-0.2c-1.6,0-4.1,0.2-7.4,0.5v-4.4
		c3.8-0.3,6.5-0.4,8.1-0.4c3.4,0,5.9,0.4,7.4,1.2c1.5,0.8,2.3,2.2,2.3,4.2v4.5c0,0.8-0.2,1.5-0.7,2.1c-0.5,0.6-1.1,1-1.9,1.2
		c2.5,0.9,3.7,2.2,3.7,4.1v4.4c0,2.3-0.8,4-2.4,5c-1.6,1-4.1,1.5-7.6,1.5C461.5,37.9,458.5,37.7,454.7,37.3z"/>
</g>
</svg>
