<?xml version="1.0" encoding="utf-8"?>
<!-- Generator: Adobe Illustrator 24.2.3, SVG Export Plug-In . SVG Version: 6.00 Build 0)  -->
<svg version="1.1" id="Layer_1" xmlns="http://www.w3.org/2000/svg" xmlns:xlink="http://www.w3.org/1999/xlink" x="0px" y="0px"
	 viewBox="0 0 180 120" style="enable-background:new 0 0 180 120;" xml:space="preserve">
<g>
	<g>
		<path style="fill:#D94E67;" d="M69.4,90.2L99.1,43c0.5-0.7,1.6-0.8,2,0l9.4,16.9c0.5,1,0.5,2.1-0.1,3.1l-25.1,39.8
			c-0.6,0.9-1.7,1.6-2.8,1.5l-12.3,0.1l0,0L55,104.4l0,0l-11.2,0c-9.3,0-15-9.4-10.6-17.4c0.1-0.2,0.2-0.3,0.3-0.5l32.3-51.2
			c0,0,0-0.1,0.1-0.1c3.8-6.1-0.5-13.5-7.6-13.5l-5.4,0c1.7,3.6,1.5,7.8-0.7,11.3L22.2,80.3c-0.5,0.7-1.6,0.8-2,0l-9.3-16.8
			c-0.5-1-0.5-2.1,0.1-3.1L36,20.5c0.6-0.9,1.7-1.6,2.8-1.5l5.4,0L72,18.8l5.9,0c9.3,0,15,9.5,10.3,17.5c-0.1,0.1-0.2,0.3-0.3,0.5
			L55.6,88c0,0,0,0.1-0.1,0.1c-3.7,6,0.5,13.5,7.6,13.4l5.5,0C66.9,97.9,67.2,93.7,69.4,90.2z"/>
	</g>
	<g style="opacity:0.7;">
		<g>
			<path style="fill:#F27B35;" d="M72.8,88.9l23.8-50.5c0.4-0.8,1.5-1,2-0.3L110,53.7c0.6,0.9,0.7,2,0.3,3.1L90.2,99.4
				c-0.5,1-1.5,1.7-2.6,1.9l-12.2,1.6l0,0l-15.1,1.9l0,0l-11.2,1.4c-9.2,1.2-16.1-7.5-12.6-16c0.1-0.2,0.1-0.4,0.2-0.5l25.8-54.8
				c0,0,0-0.1,0-0.1c3-6.5-2.1-13.3-9.2-12.4L47.9,23c2.2,3.3,2.4,7.5,0.6,11.3L24.8,84.8c-0.4,0.8-1.5,1-2,0.3L11.4,69.5
				c-0.6-0.9-0.7-2-0.3-3.1l20-42.6c0.5-1,1.5-1.7,2.6-1.9l5.4-0.7l27.5-3.5l5.9-0.7c9.2-1.2,16,7.6,12.3,16.1
				c-0.1,0.1-0.1,0.4-0.2,0.5L58.9,88.4c0,0,0,0.1,0,0.1c-3,6.5,2.1,13.3,9.2,12.4l5.4-0.7C71.3,96.9,71,92.6,72.8,88.9z"/>
		</g>
	</g>
	<g style="opacity:0.7;">
		<g>
			<path style="fill:#F2C849;" d="M76,87.2l17.4-53c0.3-0.8,1.4-1.1,2-0.5l13.2,14.1c0.7,0.8,1,1.9,0.6,3L94.6,95.5
				c-0.3,1.1-1.3,1.9-2.3,2.2l-11.9,3l0,0l-14.7,3.7l0,0l-10.9,2.8c-9,2.3-16.9-5.5-14.5-14.4c0.1-0.2,0.1-0.4,0.2-0.6l18.9-57.5
				c0,0,0-0.1,0-0.1c2.2-6.8-3.7-13-10.6-11.2l-5.3,1.3c2.5,3,3.3,7.2,2,11.1L27.9,89c-0.3,0.8-1.4,1.1-2,0.5L12.7,75.4
				c-0.7-0.8-1-1.9-0.6-3l14.7-44.7c0.3-1.1,1.3-1.9,2.3-2.2l5.3-1.3l26.9-6.9l5.8-1.5c9-2.3,16.8,5.6,14.2,14.5
				c-0.1,0.1-0.1,0.4-0.2,0.5L62.2,88.4c0,0,0,0.1,0,0.1c-2.2,6.8,3.8,12.9,10.6,11.2l5.3-1.3C75.5,95.3,74.8,91.1,76,87.2z"/>
		</g>
	</g>
</g>
<g>
	<path style="fill:#D94E67;" d="M112.7,26.4h11.2l7.6,24.1l7.3-24.1h10.6l-12.8,34.8h-10.7L112.7,26.4z"/>
	<path style="fill:#F27B35;" d="M151.4,37v-4.9l1.3,0.3c0.5,0.1,0.8,0.2,0.9,0.2l1.4,0.3c0.3,0.1,1,0.1,2.1,0.3
		c0.8,0.1,1.7,0.1,2.6,0.1c1.6,0,2.8-0.2,3.4-0.6c0.6-0.4,0.9-1.1,0.9-2.2v-3.1c0-1.3-1.4-2-4.2-2h-5v-4.2h5c2.2,0,3.3-0.8,3.3-2.4
		v-2.6c0-0.6-0.1-1-0.3-1.4c-0.2-0.3-0.6-0.6-1.2-0.7c-0.6-0.1-1.4-0.2-2.5-0.2c-1.6,0-4.1,0.2-7.4,0.5V10c3.8-0.3,6.5-0.4,8.1-0.4
		c3.4,0,5.9,0.4,7.4,1.2c1.5,0.8,2.3,2.2,2.3,4.2v4.5c0,0.8-0.2,1.5-0.7,2.1c-0.5,0.6-1.1,1-1.9,1.2c2.5,0.9,3.7,2.2,3.7,4.1v4.4
		c0,2.3-0.8,4-2.4,5c-1.6,1-4.1,1.5-7.6,1.5C158.2,37.7,155.1,37.5,151.4,37z"/>
</g>
</svg>
